<svg width="25" height="25" viewBox="0 0 25 25" fill="none" xmlns="http://www.w3.org/2000/svg">
<path d="M0.78123 5.46874H24.2187C24.65 5.46874 24.9999 5.11871 24.9999 4.68751C24.9999 4.25624 24.6499 3.90628 24.2187 3.90628H0.78123C0.350027 3.90628 0 4.25624 0 4.68751C0 5.11878 0.350027 5.46874 0.78123 5.46874Z" fill="black"/>
<path d="M24.2187 11.7188H0.78123C0.349962 11.7188 0 12.0688 0 12.5C0 12.9312 0.350027 13.2812 0.78123 13.2812H24.2187C24.65 13.2812 24.9999 12.9312 24.9999 12.5C24.9999 12.0688 24.65 11.7188 24.2187 11.7188Z" fill="black"/>
<path d="M24.2187 19.5312H0.78123C0.349962 19.5312 0 19.8813 0 20.3125C0 20.7437 0.350027 21.0937 0.78123 21.0937H24.2187C24.65 21.0937 24.9999 20.7437 24.9999 20.3125C25 19.8812 24.65 19.5312 24.2187 19.5312Z" fill="black"/>
</svg>
