<svg width="25" height="25" viewBox="0 0 25 25" fill="none" xmlns="http://www.w3.org/2000/svg">
<g clip-path="url(#clip0_3_7)">
<path d="M23.713 9.72222H21.3741C20.9981 9.72222 20.6884 9.51528 20.5444 9.16806C20.4005 8.82083 20.4736 8.45509 20.7389 8.18935L22.3926 6.53611C22.6356 6.29306 22.7694 5.96944 22.7694 5.62593C22.7694 5.28194 22.6356 4.9588 22.3926 4.71528L20.2847 2.60741C19.7986 2.1213 18.9509 2.12037 18.4639 2.60741L16.8106 4.26065C16.5449 4.52593 16.1782 4.6 15.8319 4.45556C15.4847 4.31157 15.2778 4.00185 15.2778 3.62593V1.28704C15.2778 0.577315 14.7005 0 13.9907 0H11.0093C10.2995 0 9.72222 0.577315 9.72222 1.28704V3.62593C9.72222 4.00185 9.51528 4.31157 9.16806 4.45556C8.82176 4.60046 8.45509 4.52593 8.18935 4.26065L6.53611 2.60741C6.04907 2.12037 5.20139 2.1213 4.71528 2.60741L2.60741 4.71528C2.36435 4.95833 2.23056 5.28194 2.23056 5.62593C2.23056 5.96944 2.36435 6.29259 2.60741 6.53611L4.26111 8.18935C4.52639 8.45509 4.59907 8.82083 4.45556 9.16806C4.31204 9.51528 4.00185 9.72222 3.62593 9.72222H1.28704C0.577315 9.72222 0 10.2995 0 11.0093V13.9903C0 14.7005 0.577315 15.2778 1.28704 15.2778H3.62593C4.00185 15.2778 4.31157 15.4847 4.45556 15.8319C4.59954 16.1792 4.52639 16.5449 4.26111 16.8106L2.60741 18.4639C2.36435 18.7069 2.23056 19.0306 2.23056 19.3741C2.23056 19.7181 2.36435 20.0412 2.60741 20.2847L4.71528 22.3926C5.20185 22.8792 6.04907 22.8801 6.53611 22.3926L8.18935 20.7389C8.45509 20.4736 8.82037 20.4005 9.16806 20.5444C9.51528 20.6884 9.72222 20.9981 9.72222 21.3741V23.713C9.72222 24.4227 10.2995 25 11.0093 25H13.9903C14.7 25 15.2773 24.4227 15.2773 23.713V21.3741C15.2773 20.9981 15.4843 20.6884 15.8315 20.5444C16.1792 20.4 16.5444 20.4736 16.8102 20.7389L18.4634 22.3926C18.9505 22.8796 19.7981 22.8787 20.2843 22.3926L22.3921 20.2847C22.6352 20.0417 22.769 19.7181 22.769 19.3741C22.769 19.0306 22.6352 18.7074 22.3921 18.4639L20.7384 16.8106C20.4731 16.5449 20.4005 16.1792 20.544 15.8319C20.6875 15.4847 20.9981 15.2778 21.3741 15.2778H23.713C24.4227 15.2778 25 14.7005 25 13.9907V11.0093C25 10.2995 24.4227 9.72222 23.713 9.72222ZM24.0741 13.9907C24.0741 14.1898 23.912 14.3519 23.713 14.3519H21.3741C20.6222 14.3519 19.9764 14.7833 19.6889 15.4778C19.4009 16.1722 19.5523 16.9343 20.0843 17.4657L21.738 19.119C21.8792 19.2602 21.8792 19.4894 21.738 19.6301L19.6301 21.738C19.4894 21.8787 19.2602 21.8796 19.119 21.738L17.4657 20.0843C16.9338 19.5523 16.1722 19.4019 15.4778 19.6889C14.7833 19.9764 14.3519 20.6222 14.3519 21.3741V23.713C14.3519 23.912 14.1898 24.0741 13.9907 24.0741H11.0093C10.8102 24.0741 10.6481 23.912 10.6481 23.713V21.3741C10.6481 20.6222 10.2167 19.9764 9.52222 19.6889C9.28935 19.5921 9.04954 19.5449 8.8125 19.5449C8.34306 19.5449 7.88796 19.7301 7.53426 20.0838L5.88102 21.7375C5.73935 21.8792 5.51019 21.8782 5.36991 21.7375L3.26204 19.6296C3.12083 19.4884 3.12083 19.2593 3.26204 19.1185L4.91574 17.4653C5.44722 16.9338 5.59907 16.1718 5.31111 15.4773C5.02361 14.7833 4.37778 14.3519 3.62593 14.3519H1.28704C1.08796 14.3519 0.925926 14.1898 0.925926 13.9907V11.0093C0.925926 10.8102 1.08796 10.6481 1.28704 10.6481H3.62593C4.37778 10.6481 5.02361 10.2167 5.31111 9.52222C5.59907 8.82778 5.44769 8.06574 4.91574 7.53426L3.26204 5.88102C3.12083 5.73981 3.12083 5.51065 3.26204 5.36991L5.36991 3.26204C5.51065 3.12083 5.73981 3.12083 5.88102 3.26204L7.53426 4.91528C8.06528 5.4463 8.82685 5.59861 9.52222 5.31065C10.2167 5.02361 10.6481 4.37778 10.6481 3.62593V1.28704C10.6481 1.08796 10.8102 0.925926 11.0093 0.925926H13.9903C14.1898 0.925926 14.3519 1.08796 14.3519 1.28704V3.62593C14.3519 4.37778 14.7833 5.02361 15.4778 5.31111C16.1731 5.59907 16.9343 5.44722 17.4657 4.91574L19.119 3.2625C19.2606 3.1213 19.4898 3.1213 19.6301 3.2625L21.738 5.37037C21.8792 5.51157 21.8792 5.74074 21.738 5.88148L20.0843 7.53472C19.5528 8.0662 19.4009 8.82824 19.6889 9.52269C19.9764 10.2171 20.6222 10.6486 21.3741 10.6486H23.713C23.912 10.6481 24.0741 10.8102 24.0741 11.0093V13.9907Z" fill="black"/>
<path d="M12.5 8.33334C10.2023 8.33334 8.33333 10.2023 8.33333 12.5C8.33333 14.7977 10.2023 16.6667 12.5 16.6667C14.7977 16.6667 16.6667 14.7977 16.6667 12.5C16.6667 10.2023 14.7977 8.33334 12.5 8.33334ZM12.5 15.7408C10.7134 15.7408 9.25926 14.2866 9.25926 12.5C9.25926 10.7134 10.7134 9.25927 12.5 9.25927C14.2866 9.25927 15.7407 10.7134 15.7407 12.5C15.7407 14.2866 14.2866 15.7408 12.5 15.7408Z" fill="black"/>
</g>
<defs>
<clipPath id="clip0_3_7">
<rect width="25" height="25" fill="white"/>
</clipPath>
</defs>
</svg>
